<?xml version="1.0" standalone="no"?>
<!DOCTYPE svg PUBLIC "-//W3C//DTD SVG 1.1//EN" "http://www.w3.org/Graphics/SVG/1.1/DTD/svg11.dtd">
<svg xmlns="http://www.w3.org/2000/svg" width="131" height="176" viewBox="0 0 131 176" fill="none">
<path d="M123.636 88.4545C123.636 98.6061 121.712 107.242 117.864 114.364C114.045 121.485 108.833 126.924 102.227 130.682C95.6515 134.409 88.2576 136.273 80.0455 136.273C71.7727 136.273 64.3485 134.394 57.7727 130.636C51.197 126.879 46 121.439 42.1818 114.318C38.3636 107.197 36.4545 98.5758 36.4545 88.4545C36.4545 78.303 38.3636 69.6667 42.1818 62.5455C46 55.4242 51.197 50 57.7727 46.2727C64.3485 42.5151 71.7727 40.6364 80.0455 40.6364C88.2576 40.6364 95.6515 42.5151 102.227 46.2727C108.833 50 114.045 55.4242 117.864 62.5455C121.712 69.6667 123.636 78.303 123.636 88.4545ZM103.682 88.4545C103.682 81.8788 102.697 76.3333 100.727 71.8182C98.7879 67.303 96.0455 63.8788 92.5 61.5455C88.9545 59.2121 84.803 58.0455 80.0455 58.0455C75.2879 58.0455 71.1364 59.2121 67.5909 61.5455C64.0455 63.8788 61.2879 67.303 59.3182 71.8182C57.3788 76.3333 56.4091 81.8788 56.4091 88.4545C56.4091 95.0303 57.3788 100.576 59.3182 105.091C61.2879 109.606 64.0455 113.03 67.5909 115.364C71.1364 117.697 75.2879 118.864 80.0455 118.864C84.803 118.864 88.9545 117.697 92.5 115.364C96.0455 113.03 98.7879 109.606 100.727 105.091C102.697 100.576 103.682 95.0303 103.682 88.4545Z" fill="#F7ECE1"/>
<path d="M117.864 114.364L116.984 113.888L116.982 113.891L117.864 114.364ZM102.227 130.682L102.72 131.552L102.722 131.551L102.227 130.682ZM57.7727 130.636L58.2689 129.768L57.7727 130.636ZM42.1818 114.318L41.3005 114.791L41.3005 114.791L42.1818 114.318ZM42.1818 62.5455L43.0631 63.018L43.0631 63.018L42.1818 62.5455ZM57.7727 46.2727L58.2658 47.1427L58.2689 47.141L57.7727 46.2727ZM102.227 46.2727L101.731 47.141L101.736 47.1437L102.227 46.2727ZM117.864 62.5455L116.982 63.018L116.984 63.0209L117.864 62.5455ZM100.727 71.8182L99.8084 72.2128L99.8107 72.218L100.727 71.8182ZM92.5 61.5455L91.9503 62.3808L91.9503 62.3808L92.5 61.5455ZM67.5909 61.5455L68.1407 62.3808L68.1407 62.3808L67.5909 61.5455ZM59.3182 71.8182L58.4016 71.4183L58.3994 71.4235L59.3182 71.8182ZM59.3182 105.091L58.3993 105.486L58.4016 105.491L59.3182 105.091ZM67.5909 115.364L68.1407 114.528L68.1407 114.528L67.5909 115.364ZM92.5 115.364L91.9503 114.528L91.9503 114.528L92.5 115.364ZM100.727 105.091L99.8107 104.691L99.8084 104.696L100.727 105.091ZM122.636 88.4545C122.636 98.4815 120.736 106.946 116.984 113.888L118.743 114.839C122.688 107.539 124.636 98.7307 124.636 88.4545H122.636ZM116.982 113.891C113.247 120.857 108.165 126.154 101.733 129.813L102.722 131.551C109.502 127.694 114.844 122.112 118.745 114.836L116.982 113.891ZM101.734 129.812C95.3216 133.447 88.1001 135.273 80.0455 135.273V137.273C88.415 137.273 95.9814 135.372 102.72 131.552L101.734 129.812ZM80.0455 135.273C71.9302 135.273 64.6798 133.432 58.2689 129.768L57.2766 131.505C64.0172 135.356 71.6152 137.273 80.0455 137.273V135.273ZM58.2689 129.768C51.8671 126.11 46.7988 120.813 43.0631 113.846L41.3005 114.791C45.2012 122.066 50.5268 127.648 57.2766 131.505L58.2689 129.768ZM43.0631 113.846C39.3401 106.902 37.4545 98.4517 37.4545 88.4545H35.4545C35.4545 98.6998 37.3871 107.492 41.3005 114.791L43.0631 113.846ZM37.4545 88.4545C37.4545 78.4265 39.3403 69.9613 43.0631 63.018L41.3005 62.0729C37.3869 69.372 35.4545 78.1796 35.4545 88.4545H37.4545ZM43.0631 63.018C46.7985 56.0513 51.8659 50.7703 58.2658 47.1427L57.2796 45.4028C50.5281 49.2297 45.2015 54.7972 41.3005 62.0729L43.0631 63.018ZM58.2689 47.141C64.6798 43.4776 71.9302 41.6364 80.0455 41.6364V39.6364C71.6152 39.6364 64.0172 41.5527 57.2766 45.4045L58.2689 47.141ZM80.0455 41.6364C88.0987 41.6364 95.3191 43.4769 101.731 47.141L102.723 45.4045C95.984 41.5534 88.4165 39.6364 80.0455 39.6364V41.6364ZM101.736 47.1437C108.166 50.7716 113.248 56.0524 116.982 63.018L118.745 62.0729C114.843 54.796 109.501 49.2284 102.719 45.4018L101.736 47.1437ZM116.984 63.0209C120.736 69.9635 122.636 78.4276 122.636 88.4545H124.636C124.636 78.1784 122.688 69.3698 118.743 62.07L116.984 63.0209ZM104.682 88.4545C104.682 81.7848 103.684 76.0943 101.644 71.4183L99.8107 72.218C101.71 76.5724 102.682 81.9727 102.682 88.4545H104.682ZM101.646 71.4235C99.6419 66.7576 96.7833 63.1672 93.0497 60.7101L91.9503 62.3808C95.3076 64.5903 97.9338 67.8485 99.8084 72.2128L101.646 71.4235ZM93.0497 60.7101C89.3218 58.2567 84.974 57.0455 80.0455 57.0455V59.0455C84.6321 59.0455 88.5873 60.1676 91.9503 62.3808L93.0497 60.7101ZM80.0455 57.0455C75.1169 57.0455 70.7691 58.2567 67.0412 60.7101L68.1407 62.3808C71.5036 60.1676 75.4588 59.0455 80.0455 59.0455V57.0455ZM67.0412 60.7101C63.3091 63.1663 60.4361 66.7547 58.4016 71.4183L60.2348 72.218C62.1397 67.8513 64.7818 64.5913 68.1407 62.3808L67.0412 60.7101ZM58.3994 71.4235C56.3916 76.0979 55.4091 81.7865 55.4091 88.4545H57.4091C57.4091 81.9711 58.366 76.5688 60.237 72.2128L58.3994 71.4235ZM55.4091 88.4545C55.4091 95.1226 56.3916 100.811 58.3994 105.486L60.237 104.696C58.366 100.34 57.4091 94.938 57.4091 88.4545H55.4091ZM58.4016 105.491C60.4361 110.154 63.3091 113.743 67.0412 116.199L68.1407 114.528C64.7818 112.318 62.1397 109.058 60.2348 104.691L58.4016 105.491ZM67.0412 116.199C70.7691 118.652 75.1169 119.864 80.0455 119.864V117.864C75.4588 117.864 71.5036 116.742 68.1407 114.528L67.0412 116.199ZM80.0455 119.864C84.974 119.864 89.3218 118.652 93.0497 116.199L91.9503 114.528C88.5873 116.742 84.6321 117.864 80.0455 117.864V119.864ZM93.0497 116.199C96.7833 113.742 99.6419 110.151 101.646 105.486L99.8084 104.696C97.9338 109.061 95.3076 112.319 91.9503 114.528L93.0497 116.199ZM101.644 105.491C103.684 100.815 104.682 95.1242 104.682 88.4545H102.682C102.682 94.9364 101.71 100.337 99.8107 104.691L101.644 105.491Z" fill="#F7ECE1"/>
<mask id="mask0_1_17" style="mask-type:alpha" maskUnits="userSpaceOnUse" x="0" y="0" width="80" height="176">
<rect x="0.5" y="0.5" width="79" height="175" fill="white" stroke="black"/>
</mask>
<g mask="url(#mask0_1_17)">
</g>
<mask id="mask1_1_17" style="mask-type:alpha" maskUnits="userSpaceOnUse" x="0" y="0" width="80" height="176">
<rect x="0.5" y="0.5" width="79" height="175" fill="white" stroke="black"/>
</mask>
<g mask="url(#mask1_1_17)">
<path d="M123.636 88.4545C123.636 98.6061 121.712 107.242 117.864 114.364C114.045 121.485 108.833 126.924 102.227 130.682C95.6515 134.409 88.2576 136.273 80.0455 136.273C71.7727 136.273 64.3485 134.394 57.7727 130.636C51.197 126.879 46 121.439 42.1818 114.318C38.3636 107.197 36.4545 98.5758 36.4545 88.4545C36.4545 78.303 38.3636 69.6667 42.1818 62.5455C46 55.4242 51.197 50 57.7727 46.2727C64.3485 42.5151 71.7727 40.6364 80.0455 40.6364C88.2576 40.6364 95.6515 42.5151 102.227 46.2727C108.833 50 114.045 55.4242 117.864 62.5455C121.712 69.6667 123.636 78.303 123.636 88.4545ZM103.682 88.4545C103.682 81.8788 102.697 76.3333 100.727 71.8182C98.7879 67.303 96.0455 63.8788 92.5 61.5455C88.9545 59.2121 84.803 58.0455 80.0455 58.0455C75.2879 58.0455 71.1364 59.2121 67.5909 61.5455C64.0455 63.8788 61.2879 67.303 59.3182 71.8182C57.3788 76.3333 56.4091 81.8788 56.4091 88.4545C56.4091 95.0303 57.3788 100.576 59.3182 105.091C61.2879 109.606 64.0455 113.03 67.5909 115.364C71.1364 117.697 75.2879 118.864 80.0455 118.864C84.803 118.864 88.9545 117.697 92.5 115.364C96.0455 113.03 98.7879 109.606 100.727 105.091C102.697 100.576 103.682 95.0303 103.682 88.4545Z" fill="#242038"/>
<path d="M117.864 114.364L116.984 113.888L116.982 113.891L117.864 114.364ZM102.227 130.682L102.72 131.552L102.722 131.551L102.227 130.682ZM57.7727 130.636L58.2689 129.768L57.7727 130.636ZM42.1818 114.318L41.3005 114.791L41.3005 114.791L42.1818 114.318ZM42.1818 62.5455L43.0631 63.018L43.0631 63.018L42.1818 62.5455ZM57.7727 46.2727L58.2658 47.1427L58.2689 47.141L57.7727 46.2727ZM102.227 46.2727L101.731 47.141L101.736 47.1437L102.227 46.2727ZM117.864 62.5455L116.982 63.018L116.984 63.0209L117.864 62.5455ZM100.727 71.8182L99.8084 72.2128L99.8107 72.218L100.727 71.8182ZM92.5 61.5455L91.9503 62.3808L91.9503 62.3808L92.5 61.5455ZM67.5909 61.5455L68.1407 62.3808L68.1407 62.3808L67.5909 61.5455ZM59.3182 71.8182L58.4016 71.4183L58.3994 71.4235L59.3182 71.8182ZM59.3182 105.091L58.3993 105.486L58.4016 105.491L59.3182 105.091ZM67.5909 115.364L68.1407 114.528L68.1407 114.528L67.5909 115.364ZM92.5 115.364L91.9503 114.528L91.9503 114.528L92.5 115.364ZM100.727 105.091L99.8107 104.691L99.8084 104.696L100.727 105.091ZM122.636 88.4545C122.636 98.4815 120.736 106.946 116.984 113.888L118.743 114.839C122.688 107.539 124.636 98.7307 124.636 88.4545H122.636ZM116.982 113.891C113.247 120.857 108.165 126.154 101.733 129.813L102.722 131.551C109.502 127.694 114.844 122.112 118.745 114.836L116.982 113.891ZM101.734 129.812C95.3216 133.447 88.1001 135.273 80.0455 135.273V137.273C88.415 137.273 95.9814 135.372 102.72 131.552L101.734 129.812ZM80.0455 135.273C71.9302 135.273 64.6798 133.432 58.2689 129.768L57.2766 131.505C64.0172 135.356 71.6152 137.273 80.0455 137.273V135.273ZM58.2689 129.768C51.8671 126.11 46.7988 120.813 43.0631 113.846L41.3005 114.791C45.2012 122.066 50.5268 127.648 57.2766 131.505L58.2689 129.768ZM43.0631 113.846C39.3401 106.902 37.4545 98.4517 37.4545 88.4545H35.4545C35.4545 98.6998 37.3871 107.492 41.3005 114.791L43.0631 113.846ZM37.4545 88.4545C37.4545 78.4265 39.3403 69.9613 43.0631 63.018L41.3005 62.0729C37.3869 69.372 35.4545 78.1796 35.4545 88.4545H37.4545ZM43.0631 63.018C46.7985 56.0513 51.8659 50.7703 58.2658 47.1427L57.2796 45.4028C50.5281 49.2297 45.2015 54.7972 41.3005 62.0729L43.0631 63.018ZM58.2689 47.141C64.6798 43.4776 71.9302 41.6364 80.0455 41.6364V39.6364C71.6152 39.6364 64.0172 41.5527 57.2766 45.4045L58.2689 47.141ZM80.0455 41.6364C88.0987 41.6364 95.3191 43.4769 101.731 47.141L102.723 45.4045C95.984 41.5534 88.4165 39.6364 80.0455 39.6364V41.6364ZM101.736 47.1437C108.166 50.7716 113.248 56.0524 116.982 63.018L118.745 62.0729C114.843 54.796 109.501 49.2284 102.719 45.4018L101.736 47.1437ZM116.984 63.0209C120.736 69.9635 122.636 78.4276 122.636 88.4545H124.636C124.636 78.1784 122.688 69.3698 118.743 62.07L116.984 63.0209ZM104.682 88.4545C104.682 81.7848 103.684 76.0943 101.644 71.4183L99.8107 72.218C101.71 76.5724 102.682 81.9727 102.682 88.4545H104.682ZM101.646 71.4235C99.6419 66.7576 96.7833 63.1672 93.0497 60.7101L91.9503 62.3808C95.3076 64.5903 97.9338 67.8485 99.8084 72.2128L101.646 71.4235ZM93.0497 60.7101C89.3218 58.2567 84.974 57.0455 80.0455 57.0455V59.0455C84.6321 59.0455 88.5873 60.1676 91.9503 62.3808L93.0497 60.7101ZM80.0455 57.0455C75.1169 57.0455 70.7691 58.2567 67.0412 60.7101L68.1407 62.3808C71.5036 60.1676 75.4588 59.0455 80.0455 59.0455V57.0455ZM67.0412 60.7101C63.3091 63.1663 60.4361 66.7547 58.4016 71.4183L60.2348 72.218C62.1397 67.8513 64.7818 64.5913 68.1407 62.3808L67.0412 60.7101ZM58.3994 71.4235C56.3916 76.0979 55.4091 81.7865 55.4091 88.4545H57.4091C57.4091 81.9711 58.366 76.5688 60.237 72.2128L58.3994 71.4235ZM55.4091 88.4545C55.4091 95.1226 56.3916 100.811 58.3994 105.486L60.237 104.696C58.366 100.34 57.4091 94.938 57.4091 88.4545H55.4091ZM58.4016 105.491C60.4361 110.154 63.3091 113.743 67.0412 116.199L68.1407 114.528C64.7818 112.318 62.1397 109.058 60.2348 104.691L58.4016 105.491ZM67.0412 116.199C70.7691 118.652 75.1169 119.864 80.0455 119.864V117.864C75.4588 117.864 71.5036 116.742 68.1407 114.528L67.0412 116.199ZM80.0455 119.864C84.974 119.864 89.3218 118.652 93.0497 116.199L91.9503 114.528C88.5873 116.742 84.6321 117.864 80.0455 117.864V119.864ZM93.0497 116.199C96.7833 113.742 99.6419 110.151 101.646 105.486L99.8084 104.696C97.9338 109.061 95.3076 112.319 91.9503 114.528L93.0497 116.199ZM101.644 105.491C103.684 100.815 104.682 95.1242 104.682 88.4545H102.682C102.682 94.9364 101.71 100.337 99.8107 104.691L101.644 105.491Z" fill="#F7ECE1"/>
</g>
</svg>